<svg width="124" height="117" viewBox="0 0 124 117" fill="none" xmlns="http://www.w3.org/2000/svg">
<path fill-rule="evenodd" clip-rule="evenodd" d="M90.0226 3.67371C119.354 12.9315 123.468 47.1344 123.468 47.1344C124.278 51.5694 124.191 65.7385 122.493 72.7565C121.334 77.5845 120.266 90.389 99.3696 106.788C95.3183 109.968 90.5869 113.59 85.7206 114.073C85.1164 114.131 84.5076 114.18 84.2122 113.73C83.9155 113.277 84.8203 112.115 85.0684 111.969C97.7388 104.428 115.355 91.6519 116.101 61.4757C116.101 61.4757 117.86 33.1028 100.342 19.7137C94.7124 15.4137 86.5654 10.5214 80.2073 8.76903C79.2792 8.51188 70.4538 6.54354 70.2184 8.03262C69.8818 10.1558 73.4781 10.2999 75.2659 10.3499C79.4973 10.4678 84.6688 13.0744 85.8389 13.6513C100.978 21.105 104.988 29.8376 106.319 31.9662C112.196 41.3199 111.962 59.2554 111.991 61.8406C112.189 78.0412 103.678 89.1269 99.8744 94.392C93.3825 103.366 78.7299 114.825 54.8949 116.838C49.3199 117.309 37.0609 117.155 24.9316 110.534C21.0598 108.419 13.2628 102.109 9.37697 94.836C8.24545 92.7183 6.05986 87.2156 8.63194 86.6869C10.1939 86.3708 12.4484 91.1273 16.6637 95.6875C20.4909 99.8345 24.4048 103.682 30.0935 106.478C37.6661 110.202 46.8216 112.307 50.6154 111.703C51.4513 111.574 51.5488 110.555 50.7224 110.361C48.3758 109.808 43.7638 109.399 39.9616 108.048C33.996 105.93 23.0307 99.017 16.6881 90.897C14.3212 87.8706 10.7777 80.8486 10.0927 75.6549C8.90307 66.6323 9.30143 53.8118 9.7194 51.3181C12.1565 36.8211 19.9462 28.4296 25.8763 23.196C31.7296 18.0561 42.4968 14.4033 45.2699 13.0791C45.7508 12.8492 45.4791 12.276 45.1717 12.2259C44.6603 12.1426 44.0355 12.2439 43.4934 12.3723C43.1098 12.4777 42.671 12.5648 42.2216 12.6504C41.0028 12.8988 6.42088 20.7216 6.048 62.7969C6.01711 66.5793 2.74172 64.4235 2.3381 62.102C1.22561 55.7111 1.38856 49.8298 2.83805 43.7132C5.51408 32.4431 12.5084 23.4866 19.4415 17.5613C29.5874 8.88822 43.7146 3.87676 55.4854 1.81796C65.4993 0.0608754 73.6519 -1.49726 90.0226 3.67371ZM5.10695 82.5168C6.93811 82.8508 7.39531 81.3516 7.25374 80.6718C6.95831 79.2786 6.87325 77.8697 6.77106 75.9573C6.67239 74.1909 6.48676 72.0926 5.3387 70.6506C4.75603 69.9142 3.93619 69.4992 2.97655 69.4789C-1.30299 69.3854 0.100099 76.2884 0.741034 78.5907C1.02768 79.597 1.46527 80.5901 2.28745 81.2773C3.06102 81.9333 4.08479 82.3358 5.10695 82.5168Z" fill="#C8102E"/>
<path fill-rule="evenodd" clip-rule="evenodd" d="M108.398 104.727H109.21L109.973 106.89H109.99L110.747 104.727H111.567V107.547H111.033V105.194H111.016L110.194 107.547H109.766L108.947 105.194H108.93V107.547H108.398V104.727ZM105.759 104.727H107.983V105.18H107.138V107.547H106.604V105.18H105.759V104.727Z" fill="#C8102E"/>
<path fill-rule="evenodd" clip-rule="evenodd" d="M90.8165 36.5438C90.2451 36.2919 89.7283 36.0657 89.3123 35.8745C87.7973 35.178 84.0688 33.9991 81.0735 33.0523C79.4107 32.5266 77.6929 31.9842 77.3706 31.8359C77.0437 31.33 76.3218 28.1566 75.9722 26.6144C75.7916 25.8189 75.6478 25.1908 75.5693 24.9182C75.2969 23.9464 74.9581 23.3951 74.0282 23.4433C74.0228 23.4439 73.9569 23.4487 73.9521 23.4487C73.6256 23.4773 69.1831 24.3751 61.9065 25.85C57.0158 26.8412 51.9597 27.866 51.6398 27.9063C51.2326 27.9415 50.9948 28.1494 47.8193 32.9697C46.8662 34.4164 45.6801 36.2174 45.4899 36.4057C45.3745 36.4724 44.7021 36.7498 43.9903 37.0433C41.9689 37.8756 38.2054 39.4267 34.9842 41.1074C31.4246 42.9693 24.5718 46.9661 24.0581 47.9109C23.8672 48.2616 23.8619 48.6337 24.0416 48.9321C24.2841 49.3327 24.8251 49.5502 25.4887 49.515C25.6301 49.5072 25.7787 49.4893 25.9285 49.4578C26.6123 49.3173 48.2825 46.1188 60.7157 44.7113C63.821 44.3619 67.7414 44.06 72.3699 43.8148C83.7557 43.2122 95.2237 43.1603 95.8891 43.2657C96.5609 43.3777 97.2418 43.1401 97.709 42.6359C98.0885 42.2238 98.2912 41.6862 98.275 41.1206C98.2382 40.003 95.8415 38.7545 90.8165 36.5438" fill="white"/>
<path fill-rule="evenodd" clip-rule="evenodd" d="M51.317 58.6333C51.2319 57.5324 51.0573 56.9923 50.71 56.7685C50.5333 56.6589 50.2979 56.6144 50.0922 56.6531C50.0774 56.6531 50.0608 56.6578 50.0482 56.6607C49.5197 56.7846 49.3169 57.299 49.1825 57.6431C49.1469 57.7361 49.0999 57.8253 48.8169 58.2064C44.8358 63.5637 44.3275 65.3933 44.1093 67.0765C43.9345 68.4209 44.3947 69.9726 45.1783 70.6792C45.5404 71.0056 46.0125 71.1472 46.4738 71.0632C46.8275 71.0008 47.1159 70.8078 47.2651 70.5411C47.3937 70.3101 47.409 70.0481 47.3074 69.7742C47.4667 68.9276 48.088 67.6981 48.8092 66.2769C50.0048 63.9167 51.493 60.9786 51.317 58.6333" fill="white"/>
<path fill-rule="evenodd" clip-rule="evenodd" d="M50.8367 55.1749C50.8612 55.1708 50.8872 55.1677 50.9117 55.1625C51.9597 54.9755 52.8331 53.7841 53.3047 53.1416C54.2535 51.8431 55.3897 50.1165 55.9225 49.2705C56.0372 49.0882 56.2934 48.6107 56.3457 48.4614C56.4534 48.1475 56.4368 47.9117 56.3024 47.7503C56.1336 47.5556 55.8178 47.5122 55.3148 47.6277C54.0847 47.9063 51.5691 49.1264 50.0573 51.2203C49.3758 52.1629 49.0364 53.2393 49.1714 54.027C49.3076 54.8283 49.9782 55.2904 50.8367 55.1749" fill="white"/>
<path fill-rule="evenodd" clip-rule="evenodd" d="M73.5057 65.9979C73.253 66.0235 73.0385 66.1247 73.0314 66.1294C72.0954 66.5456 70.4629 66.8058 69.6466 66.8963C68.3267 67.0369 67.0182 66.863 65.5056 66.6648C63.6041 66.41 61.4513 66.1264 58.7354 66.417C58.2705 66.467 57.7978 66.5331 57.3274 66.6135C58.1599 65.7573 60.4863 63.356 61.814 61.9468C62.7259 60.9823 64.3175 59.1842 64.7575 57.9946C64.9253 57.5397 65.1428 56.6948 64.7302 56.1591C64.4537 55.8047 63.9633 55.66 63.267 55.7339C63.1594 55.747 55.1978 56.5639 55.1978 56.5639C54.9641 56.5895 54.6075 56.5609 54.4333 56.546C54.3857 56.543 54.3511 56.5394 54.3334 56.5388C53.4849 56.4972 52.891 56.8383 52.7447 57.4337C52.6103 57.9792 52.8921 58.596 53.4272 58.9348C53.9701 59.2748 54.8536 59.4271 56.1283 59.3938C56.5766 59.3843 57.0343 59.3526 57.4904 59.3038C58.5654 59.189 59.4221 58.9949 59.9429 58.8572C58.8091 59.9386 55.6443 62.9506 53.6865 64.8112C53.5509 64.9392 53.4113 65.0697 53.266 65.2071C52.218 66.1907 51.0301 67.3053 50.4795 68.4509C50.0032 69.4494 50.0473 70.302 50.602 70.7806C50.9384 71.0755 51.2791 71.1778 51.7417 71.1284C52.0824 71.0926 52.4742 70.9784 53.0176 70.8211C54.0528 70.5211 55.6181 70.0693 58.1866 69.7923C60.2705 69.5689 62.6969 69.5006 65.3943 69.5887C66.367 69.6208 67.3171 69.5881 68.2125 69.4911C70.4272 69.2534 72.2951 68.6277 73.4748 67.7239L73.5236 67.6888C73.8708 67.4249 74.523 66.9351 74.2305 66.3427C74.1033 66.0806 73.8477 65.9592 73.5057 65.9979" fill="white"/>
<path fill-rule="evenodd" clip-rule="evenodd" d="M44.4726 61.1042C44.4934 61.0602 46.4465 56.8441 42.7656 53.8535C40.9375 52.3657 38.379 51.825 35.5597 52.3317C34.0596 52.6032 32.5709 53.1575 31.5763 53.8184C30.4811 54.5441 30.1874 55.2943 30.1321 55.7963C30.0673 56.4012 30.3206 56.8674 30.4543 56.996C30.6089 57.1532 30.8878 57.3169 31.6303 57.1848C31.9853 57.1205 32.4288 56.9919 32.9502 56.8007C31.9698 58.0797 28.9762 62.3653 26.6533 69.7571C24.9637 75.1467 24.4945 78.3052 25.217 79.4202C25.387 79.6816 25.6247 79.8299 25.9209 79.8621C26.0106 79.8721 26.1004 79.8693 26.1908 79.8514C27.679 79.5864 29.1724 75.7115 31.2374 70.3519C31.5357 69.5796 31.8457 68.7813 32.1654 67.9607C35.5971 59.181 35.8016 57.0508 35.596 56.4464C36.6323 56.437 40.363 56.5953 40.8101 59.4366C41.1817 61.7931 38.6621 63.9513 36.1798 65.1879C35.5276 65.5119 34.8807 65.728 34.3617 65.9037C33.8701 66.0698 33.483 66.2001 33.2214 66.3681C32.905 66.5687 32.9473 66.8009 32.9841 66.8896C33.1375 67.3105 34.0888 67.6036 35.6102 67.3505L35.7244 67.3308C36.785 67.1391 42.1918 65.9422 44.4726 61.1042" fill="white"/>
<path fill-rule="evenodd" clip-rule="evenodd" d="M72.5879 75.9474C72.6391 75.2841 72.5372 74.8035 72.2894 74.525C72.1472 74.3683 71.9629 74.2797 71.7508 74.2725C71.6657 74.2684 71.5831 74.2743 71.501 74.2881C70.8541 74.4036 70.4297 75.0805 69.8416 76.0133C69.2721 76.9226 68.4909 78.1627 67.1638 79.4357C65.6691 80.8665 64.0317 82.0107 63.4687 82.2507C63.8997 80.9088 64.0443 79.2875 63.9556 78.4052C63.87 77.5281 63.5715 76.8934 63.0703 76.5141C62.4787 76.0701 61.7481 76.0837 61.2398 76.1777C60.5732 76.2963 59.9841 76.597 59.767 76.8238C59.6279 76.9714 59.5696 77.1196 59.5982 77.2661C59.6374 77.4627 59.8229 77.63 60.1678 77.7764C60.7921 78.0472 60.6928 78.3444 60.547 78.7927C60.5204 78.8779 60.4893 78.9683 60.4679 79.0518C60.3543 79.4412 60.2147 79.8389 60.0714 80.2563C59.5286 81.8232 58.9697 83.4428 59.4863 84.8103C59.9086 85.9303 60.9579 86.4268 62.3628 86.1732C62.631 86.1255 62.9122 86.0505 63.1981 85.9517C64.7612 85.4009 66.4659 83.915 68.2715 81.5309C68.3647 83.6398 69.6716 84.6788 70.2525 85.1383C70.6693 85.4712 71.145 85.6272 71.5247 85.5599C71.7609 85.516 71.944 85.3874 72.0439 85.1962C72.1336 85.014 72.1925 84.6865 71.9382 84.1763C71.5438 83.3814 72.0231 80.0632 72.3381 77.8675C72.457 77.0471 72.5582 76.3397 72.5879 75.9474" fill="white"/>
<path fill-rule="evenodd" clip-rule="evenodd" d="M90.8291 70.2987C90.4896 69.9826 89.8213 70.1231 87.3344 70.6679C86.6382 70.822 85.7981 71.0054 84.7878 71.2168C84.4984 71.2776 84.0043 71.3978 83.3787 71.5507C83.0359 71.6348 82.6517 71.7277 82.239 71.8265L82.3604 71.577C82.791 70.6679 83.2391 69.7294 83.395 69.1306C83.5669 68.4786 83.4782 67.9065 83.1565 67.5582C82.9223 67.3027 82.5816 67.193 82.225 67.2568C81.8925 67.3157 81.578 67.5147 81.3122 67.8278C80.9274 68.2802 79.5678 69.9628 78.1028 72.7034C77.5784 72.7905 76.113 73.0048 75.0855 72.9017C74.8696 72.8774 74.5439 72.8523 74.2372 72.9052L74.208 72.9137C73.7318 73.0042 73.3857 73.2792 73.1806 73.7311C73.0528 74.008 73.0444 74.3266 73.1545 74.6205C73.2977 74.9963 73.6145 75.309 74.0462 75.4958C74.6854 75.7751 75.5874 75.9145 76.6123 75.8935C75.0552 79.75 74.4749 83.3741 74.8917 86.6672C74.9665 87.284 75.1283 87.686 75.3662 87.8628C75.4767 87.942 75.6033 87.9729 75.7331 87.9502C76.0873 87.8854 76.4362 87.4198 76.6438 86.7333C76.8163 86.1707 79.139 79.2766 80.8258 75.0404C84.2915 73.8347 87.046 72.7576 89.2441 71.7495L89.3701 71.6931C89.9967 71.4134 90.5955 71.1268 90.759 70.9668C90.882 70.8459 90.948 70.7058 90.948 70.5743C90.9476 70.4703 90.9059 70.3719 90.8291 70.2987" fill="white"/>
<path fill-rule="evenodd" clip-rule="evenodd" d="M59.3417 79.2492C59.3143 79.164 59.2292 79.0121 58.9992 78.9835C58.8375 78.9265 58.6609 78.9491 58.2709 79.0872C58.1621 79.1276 58.0342 79.1747 57.8832 79.2313C57.5942 79.3383 57.212 79.4843 56.7025 79.6563C57.0527 78.0326 57.3779 76.7121 57.6449 75.6428C58.193 73.4286 58.4694 72.3176 58.1163 71.8133C57.9932 71.64 57.803 71.5435 57.5313 71.5174C57.467 71.512 57.401 71.5132 57.3339 71.5274C55.8718 71.7882 53.6387 76.4645 52.1773 80.9703C52.0649 80.9985 51.9549 81.0252 51.8396 81.0561C50.2623 81.4509 48.5226 81.8362 46.6647 82.204C47.076 80.934 47.5078 79.6641 48.0126 78.2197L48.0297 78.1713C48.5233 76.7646 49.4442 74.1484 49.2968 72.9696C49.1987 72.1681 48.7885 72.0632 48.5541 72.0735C48.5143 72.0735 48.4793 72.0776 48.4395 72.0866C46.8251 72.3758 43.7418 77.9768 41.6473 83.1306L41.4113 83.1722L40.8832 83.2674C39.7376 83.4729 38.6549 83.6807 37.9986 83.933C36.9682 84.3332 36.385 84.8928 36.3558 85.5014C36.3285 86.0466 36.7643 86.5725 37.5521 86.9428C38.2204 87.2542 39.0699 87.4186 40.0801 87.4376C39.2845 89.9395 38.1858 94.1761 39.1888 95.8391C39.4254 96.2261 39.762 96.4577 40.1906 96.528C40.4658 96.5727 40.7317 96.5727 40.9807 96.5268C42.7561 96.2084 43.5445 93.663 43.9803 91.7744C44.3656 90.1215 44.8162 88.3909 45.3169 86.6283C47.1368 86.1259 49.1581 85.4007 51.1798 84.5242C50.6142 86.9732 50.0228 90.82 51.7386 91.2058C52.0543 91.307 52.3717 91.3272 52.6798 91.2726C53.3866 91.1446 54.03 90.6026 54.4884 89.7448C55.1079 88.5866 55.4069 86.9041 55.6376 85.4144C55.8249 84.2231 56.0234 83.0768 56.2263 82.0033C57.495 81.2658 58.463 80.5953 58.9581 80.106C59.2756 79.7915 59.4153 79.4813 59.3417 79.2492" fill="white"/>
<path fill-rule="evenodd" clip-rule="evenodd" d="M91.9364 58.3711C91.5742 58.3408 91.2842 58.2033 91.0779 57.9598C90.6355 57.4311 90.8418 56.8196 91.2586 55.602C91.4252 55.1156 91.6124 54.5648 91.8039 53.8908C92.0273 53.1008 91.8603 52.6256 91.6825 52.3661C91.4691 52.0559 91.157 51.9225 90.9376 51.9052C90.5719 51.8737 90.1326 52.1326 89.9827 52.2286C89.3668 52.1094 88.7014 52.0797 88.0088 52.1368C84.592 52.4249 80.5514 54.9381 78.8053 57.8633C77.955 59.297 77.7683 60.645 78.2671 61.756C78.3034 61.8435 78.3456 61.925 78.3956 62.0066C78.3366 62.0221 78.2879 62.0412 78.2571 62.0554C77.7303 62.3335 77.1047 62.5002 76.3437 62.5628C75.1552 62.6628 73.8258 62.4914 72.648 62.3388C72.0558 62.2633 71.4881 62.1889 70.9726 62.152C71.9412 61.2575 74.9453 58.2461 76.1363 56.9929C76.6636 56.4361 77.5341 55.4562 77.7005 55.1846C78.2446 54.3106 78.2981 53.5061 77.8534 52.9174C77.5102 52.4685 76.7094 51.9641 74.8247 52.122C74.5298 52.1458 74.214 52.1868 73.8835 52.2428C70.8852 52.7441 68.8595 53.0615 68.0284 53.1603C67.6467 53.2068 67.4933 53.1794 67.2346 53.1179C67.0724 53.0817 66.9339 53.0473 66.7601 53.0543L66.7032 53.0561C66.3114 53.0907 65.982 53.2854 65.7733 53.6063C65.5171 54.0046 65.4783 54.563 65.6692 55.0923C65.9795 55.9414 67.0254 56.2939 67.8299 56.3355C68.243 56.3577 68.8008 56.3392 69.4839 56.2814C70.764 56.1729 72.2098 55.9521 72.9317 55.8372C72.1974 56.5004 71.2847 57.2357 70.3264 58.0068C68.746 59.281 67.1099 60.598 65.9368 61.8542C64.636 63.2432 64.0152 64.6508 64.3975 65.3558C64.5908 65.7046 65.0301 65.8565 65.507 65.7345C66.1442 65.5671 66.8386 65.455 67.6277 65.3891C68.6676 65.3004 69.743 65.3076 70.7852 65.3146C71.8233 65.3194 72.8948 65.3271 73.9258 65.2407C75.2135 65.1312 76.2565 64.896 77.1993 64.5025C78.3778 64.006 79.1292 63.3902 79.2819 62.8141C79.4723 62.9075 79.6863 62.9784 79.9141 63.0236C80.3837 63.12 80.879 63.1498 81.3844 63.1058C83.6151 62.9211 85.6323 61.4434 86.8382 60.5622C87.101 60.3717 87.3191 60.2128 87.4838 60.1073C87.8958 60.829 89.1901 61.2361 90.7283 61.1093L90.7652 61.104C91.5714 61.0332 93.3133 60.6147 93.8907 59.9312C94.0311 59.7655 94.0952 59.5928 94.0808 59.4197C94.0511 59.0255 93.6547 58.5211 91.9364 58.3711ZM87.7472 55.0119C87.0272 56.5481 86.9083 56.9077 86.8459 57.4395C86.1757 57.8835 83.8203 59.1042 82.8397 59.1863C82.6056 59.2071 82.5443 59.1548 82.5288 59.1357C82.4979 59.0976 82.5146 59.0148 82.5229 58.9797C83.5747 56.1748 86.7941 55.2329 87.7472 55.0119Z" fill="white"/>
</svg>
