<svg width="135" height="33" viewBox="0 0 135 33" fill="none" xmlns="http://www.w3.org/2000/svg">
<path fill-rule="evenodd" clip-rule="evenodd" d="M1.90297 21.4557C1.93186 21.9917 1.95562 22.3887 2.03886 22.7808C2.07908 22.9719 1.95034 23.3932 1.43538 23.3002C1.14871 23.2487 0.860638 23.1365 0.64245 22.9515C0.411217 22.7573 0.289933 22.4793 0.208093 22.1958C0.0279514 21.548 -0.365719 19.6052 0.836257 19.6322C1.10616 19.6383 1.33584 19.7555 1.50138 19.9616C1.82284 20.3684 1.87517 20.9568 1.90297 21.4557ZM34.6991 13.3459C34.6991 13.3459 33.5435 3.72531 25.2994 1.1208C20.6999 -0.333377 18.4076 0.104807 15.5929 0.598873C12.2853 1.17715 8.316 2.58744 5.46325 5.02819C3.51524 6.6936 1.54952 9.21421 0.797434 12.3845C0.389942 14.1043 0.345217 15.7594 0.657203 17.5581C0.771189 18.2109 1.69115 18.8166 1.70031 17.7526C1.80436 5.91608 11.5236 3.71613 11.8665 3.64593C11.9931 3.62242 12.1146 3.59767 12.2235 3.56747C12.3765 3.5312 12.5527 3.50318 12.6947 3.52622C12.7809 3.54085 12.8579 3.70227 12.7229 3.76656C11.9434 4.13859 8.91714 5.16657 7.27134 6.61281C5.60518 8.08474 3.41662 10.4453 2.73162 14.5229C2.61484 15.2258 2.50163 18.8317 2.83614 21.37C3.02901 22.8304 4.02445 24.8056 4.68895 25.6575C6.47281 27.9423 9.55385 29.8875 11.232 30.483C12.3005 30.8627 13.5954 30.9779 14.2546 31.1318C14.4874 31.1868 14.4587 31.4736 14.2246 31.5091C13.1587 31.6804 10.5866 31.0884 8.45716 30.0408C6.8595 29.2542 5.75924 28.1716 4.68274 27.0048C3.498 25.7209 2.86533 24.3836 2.42554 24.4741C1.70249 24.6221 2.31668 26.1694 2.63565 26.7666C3.72846 28.8115 5.91841 30.5862 7.0078 31.1807C10.4157 33.0439 13.8622 33.0871 15.428 32.9549C22.1263 32.388 26.2435 29.1644 28.0699 26.6399C29.1375 25.1601 31.53 22.0416 31.4742 17.4835C31.4663 16.7567 31.5318 11.7108 29.8798 9.07941C29.5073 8.48027 28.3781 6.02379 24.1248 3.92798C23.7951 3.76532 22.3412 3.03138 21.1529 2.99853C20.6499 2.98515 19.6404 2.9439 19.7346 2.34756C19.8014 1.9279 22.2816 2.48143 22.5413 2.55412C24.3292 3.04679 26.6177 4.42251 28.2008 5.63355C33.1236 9.39913 32.6295 17.3802 32.6295 17.3802C32.4198 25.8699 27.469 29.463 23.9085 31.5859C23.8389 31.6259 23.584 31.9523 23.6668 32.0799C23.7508 32.208 23.9212 32.1934 24.0916 32.178C25.4586 32.0409 26.789 31.0222 27.9261 30.1283C33.7998 25.5134 34.0989 21.912 34.4275 20.5545C34.9041 18.5811 34.9266 14.5938 34.6991 13.3459Z" fill="#C8102E"/>
<path fill-rule="evenodd" clip-rule="evenodd" d="M25.7336 15.6287C25.5646 15.5635 25.4115 15.5045 25.288 15.4539C24.8408 15.2717 23.7382 14.9808 22.8526 14.7465C22.3614 14.617 21.8531 14.4827 21.7574 14.4438C21.661 14.2992 21.4478 13.3705 21.3442 12.92C21.2912 12.6872 21.2487 12.5035 21.2252 12.4242C21.1448 12.1413 21.0438 11.9825 20.7696 12.0122C20.7687 12.0122 20.7483 12.0139 20.7466 12.0139C20.6497 12.0281 19.3365 12.3626 17.1856 12.9115C15.7392 13.2808 14.2438 13.6624 14.1496 13.6787C14.0292 13.6957 13.9593 13.7612 13.0195 15.2366C12.7378 15.6793 12.387 16.2305 12.3308 16.2895C12.2975 16.3112 12.098 16.4034 11.8874 16.5015C11.2897 16.779 10.1779 17.2966 9.22488 17.8437C8.17198 18.4496 6.14602 19.7387 5.99429 20.0261C5.93761 20.133 5.93637 20.2434 5.98948 20.3285C6.06107 20.4439 6.22087 20.4996 6.41685 20.4789C6.45878 20.4744 6.50304 20.4666 6.5473 20.4549C6.74902 20.4026 13.1572 19.1211 16.8329 18.5126C17.7513 18.3605 18.9113 18.2109 20.2789 18.0665C23.6458 17.712 27.0365 17.5192 27.2329 17.54C27.4317 17.5631 27.6333 17.482 27.771 17.3249C27.8838 17.1973 27.9434 17.0354 27.9386 16.8682C27.928 16.5382 27.2197 16.2057 25.7336 15.6287Z" fill="white"/>
<path fill-rule="evenodd" clip-rule="evenodd" d="M127.156 22.2869H127.536L127.893 23.3011H127.901L128.255 22.2869H128.639V23.6089H128.389V22.5059H128.382L127.996 23.6089H127.796L127.412 22.5059H127.405V23.6089H127.156V22.2869ZM125.92 22.2869H126.961V22.4998H126.566V23.6089H126.316V22.4998H125.92V22.2869ZM47.8529 18.2346C48.4179 17.604 49.4205 17.7254 50.2977 17.482C51.8291 17.0575 54.2172 15.9431 54.1526 13.9879C54.0951 12.2823 52.4502 11.2783 50.5255 10.9878C49.17 15.639 46.891 19.78 44.7157 23.8245C44.0582 25.0494 43.4118 26.8526 41.7062 26.9944C40.8639 26.2667 41.1489 25.2118 41.2793 24.4596C41.6634 22.2672 42.6854 19.8905 43.5817 17.9828C44.8405 15.297 46.58 12.7857 48.3374 10.8619C47.5454 10.8867 47.0482 10.9972 46.4641 10.6278C45.9513 8.37306 48.3112 7.89332 49.9371 7.79229C53.6951 7.55724 57.4827 9.69913 57.3884 13.572C57.312 16.7087 53.9394 18.7671 50.7516 19.0258C49.8567 19.0993 48.478 19.2111 47.8529 18.2346ZM102.996 15.4509C103.568 14.3325 103.948 13.3218 104.56 11.9403C104.83 11.3315 106.346 8.55145 104.907 8.20028C104.884 8.19405 104.819 8.19218 104.797 8.20028C102.351 8.88845 100.599 13.5852 99.0801 15.5325C97.2127 15.4874 94.9398 15.3384 95.035 16.713C95.1111 17.835 96.7485 18.0562 97.6961 18.604C97.3481 19.698 95.2589 24.0773 97.0409 25.2042C98.909 26.3851 99.8831 23.6343 100.306 22.4771C100.835 21.0223 101.231 19.7304 101.843 18.635C103.317 18.5287 104.943 18.0243 106.149 18.0067C105.826 19.29 105.113 21.0781 105.884 22.7358C107.252 23.6161 108.272 22.6546 108.748 21.7683C109.505 20.358 109.619 17.847 110.184 16.7157C111.065 16.1861 112.443 16.1249 112.657 14.972C112.152 14.4767 111.366 14.9866 110.694 14.9587C110.877 14.0341 111.339 13.0575 111.659 12.1041C111.973 11.1608 112.592 10.0042 111.841 9.02232C110.314 9.28087 109.663 10.6722 109.015 11.7523C108.299 12.9436 107.727 14.2287 107.023 15.3706C105.666 15.3843 104.45 15.5286 102.996 15.4509ZM65.0429 8.56515C63.3834 8.02189 60.646 9.32664 59.7621 10.6158C59.1945 11.4438 58.9976 13.0695 60.0957 13.3715C61.4761 13.7502 62.5189 12.1639 63.1056 11.5227C64.0032 10.5425 64.7885 9.86491 65.0429 8.56515ZM128.782 10.9094C127.432 10.5573 126.875 11.5913 126.084 12.5401C125.446 13.3041 125.057 14.074 124.692 14.1809C123.791 14.4482 122.38 13.6053 121.612 13.8283C121.352 13.9023 120.93 14.2536 120.92 14.7036C120.892 15.8806 122.318 16.0607 123.465 16.4834C122.956 17.5892 122.292 18.9419 121.936 20.435C121.609 21.812 121.242 23.8325 122.009 25.28C122.946 25.1266 123.167 24.0109 123.481 23.3074C124.565 20.8852 125.583 18.3694 126.937 16.289C129.066 16.145 131.262 15.5462 132.945 15.1219C133.549 14.971 134.409 15.0327 134.626 14.3644C134.189 13.8447 133.334 14.0274 132.636 14.0203C130.978 13.9986 129.19 14.1165 128.064 14.0953C128.46 13.2549 129.599 12.235 128.782 10.9094ZM84.0903 18.8337C84.4929 17.1786 85.9804 16.5432 87.6815 16.1086C88.1432 16.1285 87.4823 16.6008 87.5262 16.8776C87.416 17.1805 87.2549 17.4341 87.2813 17.8651C86.2264 18.1977 85.4888 18.8252 84.0903 18.8337ZM75.4917 20.3108C76.4836 19.4133 77.2923 18.5388 78.4192 17.4709C79.1798 16.749 81.2269 15.5059 80.6385 13.9639C80.3182 13.1276 78.8638 12.9534 77.8295 12.952C76.3514 12.9507 74.468 13.4101 72.9579 13.3568C72.424 13.3378 71.9407 12.9028 71.5315 13.2362C70.1542 16.1232 74.5047 15.9321 76.6389 15.6966C75.0921 17.3707 72.3676 18.3929 71.0202 20.278C70.6675 20.7686 70.2233 21.5503 70.5387 22.3651C71.1147 22.825 71.7705 22.5087 72.4009 22.4871C75.263 22.3996 78.5426 23.3403 80.6725 22.3314C81.1079 22.1247 81.3783 21.7465 81.7985 21.4574C84.4071 22.2949 86.2593 20.8081 87.7804 19.961C88.7021 21.2032 92.4601 21.2843 92.7693 19.6679C92.1756 18.6589 90.5461 19.2283 90.2448 18.1087C89.9306 16.9504 91.9075 15.2864 90.6731 14.0394C90.19 13.708 89.6626 14.2203 89.3635 14.0284C85.625 13.5595 81.7303 15.5985 80.7832 18.3694C80.5296 19.1029 80.711 20.039 80.8632 20.6811C79.2758 21.3394 77.2243 20.5463 75.4917 20.3108ZM60.2969 14.474C59.7874 14.2397 59.5711 14.3968 59.3333 14.6873C57.8017 16.5459 54.3167 19.4391 54.6314 22.4675C54.7455 23.5513 55.3667 24.9261 56.759 24.4649C57.169 24.1018 57.0036 23.6135 57.1956 23.1474C58.3096 20.416 61.5323 18.5016 60.2969 14.474ZM70.6113 15.321C69.3539 14.8709 67.2297 15.1605 65.3589 15.0621C63.683 14.972 61.4981 14.3591 61.6058 15.8044C61.7323 17.5144 65.1558 17.3343 66.948 17.1641C65.6866 18.3339 64.1934 19.4684 62.7675 20.6573C61.5221 21.6945 59.2565 22.9247 59.875 25.2579C61.2727 26.0525 62.9303 25.2538 64.7749 25.1842C68.2496 25.0556 71.216 26.0973 74.5269 25.8083C75.82 25.6942 77.8472 25.2613 77.7458 23.8494C77.0119 23.4173 76.3899 23.8698 75.6833 23.9447C72.2858 24.3061 69.0841 22.4051 65.2202 22.6555C66.2154 21.6179 67.5254 20.5806 68.6659 19.4897C69.7048 18.4944 71.2506 17.2403 70.6113 15.321ZM114.066 21.4776C114.509 20.1824 115.057 17.1906 113.24 16.737C112.62 16.5827 111.766 16.761 111.312 17.1623C111.313 17.843 112.064 17.7007 112.067 18.3805C111.602 19.7623 109.647 22.3406 111.32 23.8785C112.822 25.2605 115.287 23.5991 116.045 23.0335C116.623 22.6037 117.12 22.0211 117.591 21.9443C117.769 23.7114 118.447 24.9305 120.037 25.154C120.508 24.6391 120.106 24.0541 120.109 23.3935C120.118 22.3425 120.478 21.1277 120.71 20.0966C120.954 19.0076 121.575 17.8089 120.764 16.7948C119.818 16.5845 119.419 17.3783 119.001 17.8808C117.673 19.4758 116.228 20.7068 114.066 21.4776Z" fill="#231F20"/>
</svg>
