<svg width="20" height="18" viewBox="0 0 20 18" fill="none" xmlns="http://www.w3.org/2000/svg">
<path fill-rule="evenodd" clip-rule="evenodd" d="M2.98317 3.82872L0.909504 1.75505L2.06457 0.599976L18.1901 16.7255L17.035 17.8806L14.3702 15.2248L13.9882 14.8428C12.7603 15.3339 11.4143 15.6068 10.0045 15.6068C5.45703 15.6068 1.57344 12.7782 0 8.78551C0.709413 6.9847 1.89177 5.42035 3.40155 4.24709L2.98317 3.82872ZM14.5521 8.78551C14.5521 6.27528 12.5148 4.23799 10.0046 4.23799C9.41338 4.23799 8.85858 4.35623 8.34016 4.56541L6.37563 2.60089C7.50342 2.19161 8.72216 1.96423 9.99546 1.96423C14.543 1.96423 18.4266 4.79279 20 8.78551C19.3361 10.4772 18.2538 11.9597 16.8804 13.1057L14.2247 10.4499C14.4338 9.93149 14.5521 9.37669 14.5521 8.78551ZM5.93906 6.78459L7.34879 8.19433C7.30332 8.38532 7.27603 8.58541 7.27603 8.7855C7.27603 10.2953 8.49477 11.514 10.0045 11.514C10.2046 11.514 10.4047 11.4867 10.5957 11.4413L12.0055 12.851C11.3961 13.1511 10.7231 13.333 10.0045 13.333C7.49432 13.333 5.45703 11.2957 5.45703 8.7855C5.45703 8.067 5.63893 7.39396 5.93906 6.78459ZM12.724 8.94014L9.85902 6.0752L10.0136 6.06611C11.5234 6.06611 12.7422 7.28484 12.7422 8.79462L12.724 8.94014Z" fill="#6B6E79"/>
</svg>
